<mxfile host="65bd71144e">
    <diagram name="Page-1" id="7rFvLY5jpHw615p1jj9-">
        <mxGraphModel dx="171" dy="714" grid="1" gridSize="10" guides="1" tooltips="1" connect="1" arrows="1" fold="1" page="1" pageScale="1" pageWidth="850" pageHeight="1100" math="0" shadow="0">
            <root>
                <mxCell id="0"/>
                <mxCell id="1" parent="0"/>
                <mxCell id="ky-h568fJkKBZUT4dZyJ-5" value="" style="edgeStyle=orthogonalEdgeStyle;rounded=0;orthogonalLoop=1;jettySize=auto;html=1;" parent="1" source="ky-h568fJkKBZUT4dZyJ-2" target="ky-h568fJkKBZUT4dZyJ-3" edge="1">
                    <mxGeometry relative="1" as="geometry"/>
                </mxCell>
                <mxCell id="ky-h568fJkKBZUT4dZyJ-2" value="&lt;font style=&quot;color: rgb(255, 255, 255);&quot; face=&quot;gg mono, Source Code Pro, Consolas, Andale Mono WT, Andale Mono, Lucida Console, Lucida Sans Typewriter, DejaVu Sans Mono, Bitstream Vera Sans Mono, Liberation Mono, Nimbus Mono L, Monaco, Courier New, Courier, monospace&quot;&gt;&lt;span style=&quot;font-size: 14px; white-space: pre;&quot;&gt;voiting&lt;/span&gt;&lt;/font&gt;" style="rounded=1;whiteSpace=wrap;html=1;arcSize=50;" parent="1" vertex="1">
                    <mxGeometry x="265" y="70" width="290" height="60" as="geometry"/>
                </mxCell>
                <mxCell id="ky-h568fJkKBZUT4dZyJ-7" value="" style="edgeStyle=orthogonalEdgeStyle;rounded=0;orthogonalLoop=1;jettySize=auto;html=1;" parent="1" source="ky-h568fJkKBZUT4dZyJ-3" target="ky-h568fJkKBZUT4dZyJ-6" edge="1">
                    <mxGeometry relative="1" as="geometry"/>
                </mxCell>
                <mxCell id="ky-h568fJkKBZUT4dZyJ-3" value="Enter your age" style="shape=parallelogram;perimeter=parallelogramPerimeter;whiteSpace=wrap;html=1;fixedSize=1;" parent="1" vertex="1">
                    <mxGeometry x="350" y="170" width="120" height="60" as="geometry"/>
                </mxCell>
                <mxCell id="ky-h568fJkKBZUT4dZyJ-9" value="" style="edgeStyle=orthogonalEdgeStyle;rounded=0;orthogonalLoop=1;jettySize=auto;html=1;" parent="1" source="ky-h568fJkKBZUT4dZyJ-6" target="ky-h568fJkKBZUT4dZyJ-8" edge="1">
                    <mxGeometry relative="1" as="geometry"/>
                </mxCell>
                <mxCell id="ky-h568fJkKBZUT4dZyJ-6" value="age" style="shape=parallelogram;perimeter=parallelogramPerimeter;whiteSpace=wrap;html=1;fixedSize=1;" parent="1" vertex="1">
                    <mxGeometry x="350" y="290" width="120" height="60" as="geometry"/>
                </mxCell>
                <mxCell id="IcB1OPg9zUcyGSZekM4P-7" style="edgeStyle=orthogonalEdgeStyle;rounded=0;orthogonalLoop=1;jettySize=auto;html=1;entryX=0.5;entryY=0;entryDx=0;entryDy=0;" parent="1" source="ky-h568fJkKBZUT4dZyJ-8" target="IcB1OPg9zUcyGSZekM4P-6" edge="1">
                    <mxGeometry relative="1" as="geometry">
                        <Array as="points">
                            <mxPoint x="610" y="440"/>
                            <mxPoint x="610" y="560"/>
                        </Array>
                    </mxGeometry>
                </mxCell>
                <mxCell id="ky-h568fJkKBZUT4dZyJ-8" value="age &amp;gt;= 18" style="rhombus;whiteSpace=wrap;html=1;" parent="1" vertex="1">
                    <mxGeometry x="315" y="400" width="190" height="80" as="geometry"/>
                </mxCell>
                <mxCell id="IcB1OPg9zUcyGSZekM4P-1" value="YES" style="text;html=1;align=center;verticalAlign=middle;whiteSpace=wrap;rounded=0;" parent="1" vertex="1">
                    <mxGeometry x="520" y="400" width="60" height="30" as="geometry"/>
                </mxCell>
                <mxCell id="IcB1OPg9zUcyGSZekM4P-3" value="No&amp;nbsp;" style="text;html=1;align=center;verticalAlign=middle;whiteSpace=wrap;rounded=0;" parent="1" vertex="1">
                    <mxGeometry x="220" y="400" width="60" height="30" as="geometry"/>
                </mxCell>
                <mxCell id="IcB1OPg9zUcyGSZekM4P-10" style="edgeStyle=orthogonalEdgeStyle;rounded=0;orthogonalLoop=1;jettySize=auto;html=1;entryX=0.5;entryY=0;entryDx=0;entryDy=0;" parent="1" source="IcB1OPg9zUcyGSZekM4P-4" target="IcB1OPg9zUcyGSZekM4P-8" edge="1">
                    <mxGeometry relative="1" as="geometry">
                        <Array as="points">
                            <mxPoint x="210" y="650"/>
                            <mxPoint x="410" y="650"/>
                        </Array>
                    </mxGeometry>
                </mxCell>
                <mxCell id="IcB1OPg9zUcyGSZekM4P-4" value="You can`t" style="shape=parallelogram;perimeter=parallelogramPerimeter;whiteSpace=wrap;html=1;fixedSize=1;" parent="1" vertex="1">
                    <mxGeometry x="150" y="560" width="120" height="60" as="geometry"/>
                </mxCell>
                <mxCell id="IcB1OPg9zUcyGSZekM4P-5" style="edgeStyle=orthogonalEdgeStyle;rounded=0;orthogonalLoop=1;jettySize=auto;html=1;entryX=0.529;entryY=-0.011;entryDx=0;entryDy=0;entryPerimeter=0;" parent="1" source="ky-h568fJkKBZUT4dZyJ-8" target="IcB1OPg9zUcyGSZekM4P-4" edge="1">
                    <mxGeometry relative="1" as="geometry">
                        <Array as="points">
                            <mxPoint x="214" y="440"/>
                        </Array>
                    </mxGeometry>
                </mxCell>
                <mxCell id="IcB1OPg9zUcyGSZekM4P-9" style="edgeStyle=orthogonalEdgeStyle;rounded=0;orthogonalLoop=1;jettySize=auto;html=1;" parent="1" source="IcB1OPg9zUcyGSZekM4P-6" target="IcB1OPg9zUcyGSZekM4P-8" edge="1">
                    <mxGeometry relative="1" as="geometry">
                        <Array as="points">
                            <mxPoint x="610" y="650"/>
                            <mxPoint x="410" y="650"/>
                        </Array>
                    </mxGeometry>
                </mxCell>
                <mxCell id="IcB1OPg9zUcyGSZekM4P-6" value="You can" style="shape=parallelogram;perimeter=parallelogramPerimeter;whiteSpace=wrap;html=1;fixedSize=1;" parent="1" vertex="1">
                    <mxGeometry x="550" y="560" width="120" height="60" as="geometry"/>
                </mxCell>
                <mxCell id="IcB1OPg9zUcyGSZekM4P-8" value="END" style="rounded=1;whiteSpace=wrap;html=1;arcSize=50;" parent="1" vertex="1">
                    <mxGeometry x="350" y="680" width="120" height="60" as="geometry"/>
                </mxCell>
            </root>
        </mxGraphModel>
    </diagram>
</mxfile>